<?xml version="1.0" encoding="UTF-8"?>
<svg xmlns="http://www.w3.org/2000/svg" viewBox="0 0 180 30" width="180" height="30">
  <defs>
    <style>
      .bsc-txt { font-family: 'Segoe UI','Helvetica Neue',Arial,sans-serif; }
      .bsc-blue { fill: #0073CF; }
      .bsc-black { fill: #1a1a1a; }
      .bsc-white { fill: #fff; }
    </style>
  </defs>
  <!-- "blue" text -->
  <text x="0" y="22" class="bsc-txt bsc-black" font-size="20" font-weight="700">blue</text>
  <!-- Shield icon (scaled down) -->
  <g transform="translate(48,0) scale(0.52)">
    <path class="bsc-blue" d="M24.3,29.25c5.49-3.04,8.83-7.87,10.54-13.18C36.62,10.57,36.32,4.06,34.26,0c-3.14,1.58-6.3,2.37-9.96,2.38C20.63,2.4,17.47,1.58,14.33,0c-2.06,4.06-2.36,10.57-.58,16.08,1.72,5.31,5.05,10.14,10.54,13.18h0Z"/>
    <path class="bsc-blue" d="M24.29,25.68c3.06-1.92,6.53-6.29,7.91-12.04.74-3.05.94-6.47-.02-9.19-1.37.37-2.65.67-3.97.85-1.32.18-2.63.31-3.92.32h-.01c-1.29,0-2.6-.14-3.92-.32-1.32-.18-2.6-.48-3.97-.85-.96,2.72-.75,6.14-.02,9.19,1.39,5.74,4.85,10.11,7.91,12.04h0Z"/>
    <path class="bsc-white" d="M24.29,26.8c4.52-2.8,6.93-6.81,8.48-11.35,1.37-4.02,1.7-8.73.2-12.41-2.26.78-3.58,1.02-4.81,1.21-1.15.18-2.17.29-3.85.31h-.01c-1.68-.02-2.7-.13-3.85-.31-1.23-.19-2.56-.43-4.82-1.21-1.51,3.68-1.17,8.38.2,12.41,1.54,4.53,3.95,8.55,8.48,11.35h-.01Z"/>
    <!-- Caduceus/serpent staff -->
    <path class="bsc-white" d="M21.17,7.66c-1.03.54-1.39,1.8-.93,2.82.4.88,1.2,1.47,2.12,1.74.46.14.93.17,1.41.2.59.03,1.12.05,1.68.19.12.03.25.1.31.22.15.28.01.59-.28.68,0,.49-.05,1.48-.05,1.48,0,0,2.4-.23,1.99-2.39-.1-.52-.51-1.05-.97-1.29-1.2-.62-2.52-.35-3.76-.75-.41-.13-.99-.34-1.1-.81-.05-.19,0-.56.19-.62.31-.1.65.16,1.11.27.29.07.57.06.79,0,.1-.03.25-.07.26-.13-.01-.05-.12-.09-.18-.12-.14-.07-.28-.1-.43-.16-.25-.09-.5-.21-.75-.35.24-.05.63-.06.87-.03.19.02.77.02.94-.03.04,0,.12-.04.09-.11-.07-.11-.18-.16-.26-.26-.17-.23-.32-.47-.59-.57-.79-.3-1.67-.38-2.46.03Z"/>
    <path class="bsc-white" d="M25.18,15.36v-2.52s-.31-.07-.76-.1c-.59-.04-.86-.03-.86-.03v.21s-.29.12-.33.2c-.02.03-.09.13-.06.23.23.62.55,1.23.65,1.89.44.06.83.05,1.36.12Z"/>
    <path class="bsc-white" d="M22.16,14.98c-.11.99.54,1.52,1.25,1.69.56.13,1.11.16,1.7.23.07,0,.23.01.35.06.1.05.16.11.18.17.03.09.02.16-.04.23-.06.08-.23.12-.23.12l-.03,1.19s.48-.02.87-.25c.37-.22.59-.5.68-.86.09-.41.03-.81-.26-1.21-.19-.26-.53-.45-.87-.57-.7-.24-1.46-.21-2.19-.31-.11-.01-.21-.1-.22-.2-.02-.19.15-.27.15-.27,0,0-.09-.28-.18-.56-.08-.21-.2-.5-.28-.65-.49.21-.81.67-.87,1.18Z"/>
    <path class="bsc-white" d="M25.12,17.17l-.02,2.13-.53-.24-.53-.22v-1.78c.46.06.68.06,1.08.11Z"/>
    <path class="bsc-white" d="M22.73,18.35c-.29.69.08,1.36.66,1.65.3.15.7.28,1.03.41.32.12.89.47.93.64.03.1-.09.2-.09.2v.83s.33-.07.59-.29c.24-.2.42-.46.41-.87,0-.46-.21-.81-.86-1.19-.5-.3-1.11-.53-1.59-.74-.07-.03-.13-.17-.1-.25.03-.09.08-.12.08-.12v-.96s-.38.07-.55.17c-.16.09-.4.25-.51.51Z"/>
    <path class="bsc-white" d="M25.03,21.18c0-.07-.02-.08-.05-.13-.14-.15-.35-.25-.4-.28-.15-.09-.48-.21-.48-.21,0,0,.02,2.18.06,3.31,0,.26.15.32.4.34.3.02.39-.17.39-.28.01-.36.06-1.93.07-2.75Z"/>
    <path class="bsc-white" d="M25.26,7.15c.11.08.11.09.14.25.07.35,0,.89.07,1.13.04.08.11.08.17.04.48-.26.81-.71,1.3-.92.23-.1.87.22.72.7-.07.22-.17.26-.31.4-.28.3-.69.58-1.04.96-.24.26-.53.45-.71.74-.06.09-.15.22-.15.22-.68-.14-1.36-.11-1.89-.22v-.79s.54-.09.64-.36c0-.02,0-.12-.09-.17-.09-.07-.25-.14-.3-.16.54.09.88.18,1.4.4.04-.06.01-.19-.02-.23-.07-.08-.11-.11-.29-.15-.32-.08-1.19-.19-1.19-.19,0,0,.4,0,.74-.06.16-.03.3-.06.33-.11.04-.08-.03-.21-.15-.33-.08-.08-.16-.17-.23-.25-.08-.11-.21-.31-.35-.43-.12-.11-.43-.27-.43-.27,0,0-.05-.42.03-.59.06-.13.23-.2.31-.15.39.22.77.44,1.29.53Z"/>
    <path class="bsc-white" d="M23.58,21.99c-.13.14-.35.41-.39.86-.03.4.06.51.16.72.08.18.27.17.34,0,.05-.13-.02-.26.02-.55.04-.21.21-.33.21-.33l-.02-.97s-.15.08-.33.26Z"/>
    <path class="bsc-blue" d="M23.55,7.96c-.1.07-.17.15-.28.16-.22.04-.19-.16-.34-.26-.09-.07-.18.02-.27-.14.32,0,.75-.02.99.23-.03-.02-.08,0-.1.01Z"/>
  </g>
  <!-- "of california" text -->
  <text x="68" y="22" class="bsc-txt bsc-black" font-size="20" font-weight="400">of california</text>
</svg>
