<svg width="176"
    height="30"
    viewBox="0 0 176 30"
    fill="none"
    xmlns="http://www.w3.org/2000/svg">
    <mask id="mask0_5512_99043"
        style="mask-type:luminance"
        maskUnits="userSpaceOnUse"
        x="0"
        y="0"
        width="176"
        height="30">
        <path d="M175.392 0H0.800049V29.2536H175.392V0Z"
            fill="white" />
    </mask>
    <g mask="url(#mask0_5512_99043)">
        <path d="M22.745 29.2537C21.6804 29.2537 20.6069 28.9618 19.5975 28.3843C17.1927 27.0085 15.2537 24.0526 14.7727 21.0289C14.4429 18.9561 14.3386 17.0144 14.464 15.1339C13.0135 15.1487 11.6424 15.4862 10.4601 16.155C7.80885 17.6548 6.40745 20.6366 6.40745 24.7782H0.800049C0.800049 21.6436 1.42275 18.8687 2.65085 16.5305C3.82435 14.2964 5.56995 12.4789 7.69915 11.2744C10.0316 9.9548 12.752 9.3915 15.5467 9.5658C16.6835 6.0621 18.5708 2.8999 20.4471 0L25.155 3.0461C23.032 6.3272 21.7998 8.6505 21.0314 10.8476C21.9095 11.2073 22.7741 11.6404 23.6164 12.1467C25.516 13.2884 27.0431 14.9269 28.0326 16.8852C28.9431 18.6869 29.3578 20.7127 29.2003 22.5894C28.9523 25.5441 27.337 27.8836 24.8792 28.8474C24.1873 29.1188 23.4681 29.2537 22.745 29.2537ZM20.0248 16.5576C20.015 17.7042 20.1108 18.8925 20.3104 20.148C20.5176 21.4503 21.4663 22.9933 22.382 23.5171C22.6791 23.6871 22.7825 23.6466 22.8321 23.6272C23.4425 23.3879 23.5813 22.4939 23.6126 22.1206C23.7448 20.5462 22.8984 18.2575 20.7279 16.953C20.4953 16.8132 20.2608 16.6815 20.0248 16.5576Z"
            fill="#9E28B5" />
        <path d="M6.40745 0.543701H0.800049V28.2665H6.40745V0.543701Z"
            fill="#9E28B5" />
        <path d="M68.6808 13.3083C69.8815 11.8579 71.4902 11.1848 73.0489 11.1848C75.7715 11.1848 78.3133 13.0694 78.3133 16.1286C78.3133 19.107 75.8445 23.3742 72.1538 23.3742C66.7665 23.3742 66.4543 15.8707 72.4213 15.8707C76.3116 15.8707 78.4249 19.4808 78.6876 23.0696H75.5305C75.8093 21.2101 75.0461 18.3882 72.5047 18.3882C70.9294 18.3882 70.9756 20.4138 72.3635 20.4138C75.6252 20.4138 76.7763 14.2879 73.2498 14.2879C72.4459 14.2879 71.6397 14.6023 71.1765 15.2214L68.6808 13.3083ZM51.143 23.0706H54.8424V6.63104H51.143V12.9663H44.2526V6.63104H40.53V23.0706H44.2526V16.3422H51.143V23.0706ZM61.8706 23.3481C64.5065 23.3481 66.2175 21.8914 66.9806 20.2728L64.2059 19.0706C63.8129 19.8104 63.0961 20.3653 61.9631 20.3653C60.6451 20.3653 59.7433 19.6716 59.4659 18.3306H67.3506C67.3737 17.9143 67.3967 17.5445 67.3967 17.0588C67.3967 13.6368 65.1308 11.209 61.7088 11.209C58.3792 11.209 56.067 13.8217 56.067 17.2439C56.067 20.7815 58.2173 23.3481 61.8706 23.3481ZM59.5122 16.0185C59.8359 14.793 60.6914 14.1687 61.8244 14.1687C63.073 14.1687 63.8822 14.8161 64.1136 16.0185H59.5122ZM80.0196 23.0706H83.6267V6.35344H80.0196V23.0706ZM90.5399 23.3481C91.4878 23.3481 92.274 23.1401 93.245 22.6083L92.4358 19.7642C92.0658 20.0417 91.6034 20.2267 91.1179 20.2267C90.2161 20.2267 89.7999 19.741 89.7999 18.7469V14.5618H92.5515V11.4171H89.7999V8.36514L86.1928 8.73494V11.4171H84.6436V14.5618H86.1928V18.9318C86.1928 21.8683 87.7652 23.3481 90.5399 23.3481ZM102.123 16.874V23.0707H105.73V16.3885C105.73 12.712 103.719 11.2091 101.36 11.2091C99.9035 11.2091 98.9324 11.7409 98.3081 12.4809V6.35354H94.701V23.0707H98.3081V17.0589C98.3081 15.2322 99.0481 14.5387 100.227 14.5387C101.499 14.5387 102.123 15.3248 102.123 16.874ZM112.366 23.3712C116.065 23.3712 118.354 21.3828 118.354 18.3769C118.354 15.9491 117.221 14.5618 114.215 13.2669C111.487 12.0877 110.909 11.6485 110.909 10.7698C110.909 10.0298 111.51 9.52124 112.366 9.52124C113.314 9.52124 113.915 9.96044 114.516 10.9779L117.314 9.29014C116.273 7.30154 114.608 6.35354 112.319 6.35354C109.337 6.35354 107.279 8.29584 107.279 11.0705C107.302 13.4519 108.643 14.9087 111.464 16.0879C114.169 17.2208 114.747 17.6601 114.747 18.6312C114.747 19.6255 113.915 20.2035 112.504 20.2035C111.001 20.2035 109.892 19.4172 109.429 17.8451L106.423 19.4635C107.233 21.9839 109.36 23.3712 112.366 23.3712ZM119.394 27.9955H123.001V22.0763C123.787 22.9088 124.851 23.3481 126.284 23.3481C129.244 23.3481 131.464 20.9434 131.464 17.244C131.464 13.5446 129.244 11.2091 126.284 11.2091C124.851 11.2091 123.764 11.6716 122.978 12.5271L122.839 11.4171H119.394V27.9955ZM123.001 17.2902C123.001 15.6716 123.857 14.4692 125.429 14.4692C126.816 14.4692 127.81 15.5327 127.81 17.2902C127.81 19.0243 126.816 20.0879 125.429 20.0879C123.857 20.0879 123.001 18.8855 123.001 17.2902ZM132.734 23.0706H136.341V17.452C136.341 15.4636 137.659 14.6312 139.047 14.6312C139.463 14.6312 139.81 14.6773 139.972 14.7236L140.411 11.394C140.272 11.3248 139.74 11.2091 139.255 11.2091C137.821 11.2091 136.919 11.7871 136.318 12.712L136.18 11.4171H132.734V23.0706ZM140.803 8.15694C140.803 9.40554 141.728 10.3536 143.046 10.3536C144.341 10.3536 145.266 9.40564 145.266 8.15694C145.266 6.93164 144.341 5.98364 143.046 5.98364C141.728 5.98364 140.803 6.93164 140.803 8.15694ZM141.196 23.0706H144.803V11.4171H141.196V23.0706ZM154.421 16.874V23.0707H158.028V16.2729C158.028 12.6196 156.017 11.2092 153.658 11.2092C152.155 11.2092 151.207 11.7872 150.583 12.5733L150.444 11.4172H146.999V23.0707H150.606V16.9434C150.606 15.2322 151.369 14.5387 152.525 14.5387C153.774 14.5387 154.421 15.3479 154.421 16.874ZM164.247 28.1806C167.993 28.1806 169.889 26.6083 169.889 24.1804C169.889 22.0302 168.409 20.7353 165.681 20.7353H163.669C162.79 20.7353 162.444 20.481 162.444 19.9261C162.444 19.7179 162.513 19.5098 162.698 19.371C163.184 19.5329 163.715 19.6255 164.293 19.6255C166.837 19.6255 168.848 17.7757 168.848 15.4173C168.848 14.9779 168.779 14.5387 168.64 14.1455H170.213V11.3939H165.565C165.172 11.2784 164.733 11.2321 164.293 11.2321C161.727 11.2321 159.715 13.0588 159.715 15.4172C159.715 16.3421 160.016 17.1976 160.548 17.8913C159.785 18.3537 159.299 19.2323 159.299 20.1803C159.299 21.1976 159.739 21.9607 160.432 22.4925C159.577 23.0243 159.091 23.9492 159.091 24.8509C159.091 26.9781 160.825 28.1806 164.247 28.1806ZM162.374 24.5273C162.374 23.7643 162.952 23.4406 164.27 23.4406H164.895C166.005 23.4406 166.606 23.7643 166.606 24.5273C166.606 25.2903 165.843 25.6834 164.432 25.6834C162.999 25.6834 162.374 25.2903 162.374 24.5273ZM162.79 15.4173C162.79 14.5849 163.392 13.9838 164.293 13.9838C165.195 13.9838 165.819 14.585 165.819 15.4173C165.819 16.2496 165.195 16.8508 164.293 16.8508C163.368 16.8508 162.79 16.2496 162.79 15.4173Z"
            fill="#1F1647" />
        <path d="M171.1 13.0971H171.455C171.522 13.4255 171.698 13.5482 172.036 13.5482C172.335 13.5482 172.511 13.4056 172.511 13.1734C172.511 12.951 172.248 12.8913 171.926 12.8315C171.561 12.7585 171.177 12.639 171.177 12.2143C171.177 11.836 171.495 11.5574 171.947 11.5574C172.438 11.5574 172.759 11.7996 172.826 12.2907H172.474C172.431 11.9689 172.245 11.8461 171.943 11.8461C171.668 11.8461 171.499 11.9854 171.499 12.2012C171.499 12.4367 171.787 12.4864 172.102 12.5462C172.467 12.6127 172.836 12.7287 172.836 13.1569C172.836 13.5583 172.541 13.837 172.046 13.837C171.485 13.837 171.187 13.5748 171.1 13.0971Z"
            fill="#1F1647" />
        <path d="M173.115 11.5974H173.673L174.247 13.3526L174.854 11.5974H175.392V13.8006H175.073V11.8861L174.383 13.8006H174.098L173.437 11.9059V13.8006H173.115V11.5974Z"
            fill="#1F1647" />
    </g>
</svg>
