<svg width="200" height="41" viewBox="0 0 200 41" fill="none" xmlns="http://www.w3.org/2000/svg">
<path d="M56.2714 9.66097C55.5934 9.66097 55.085 10.1696 55.085 10.8474V34.0677C53.39 34.4066 51.5256 34.7457 49.6612 34.7457C45.5934 34.7457 44.2375 33.2202 44.2375 28.8135V10.8474C44.2375 10.1695 43.7288 9.66097 43.2205 9.66097H37.1188V28.8135C37.1188 37.7966 41.8646 40.6779 49.4917 40.6779C55.5934 40.6779 61.6951 38.9831 62.2036 38.8136V9.66097H56.2714ZM149.661 40.3389C150.17 40.3389 150.848 39.8303 150.848 39.1525V15.7627C152.543 15.4238 154.407 15.0847 156.271 15.0847C160.339 15.0847 161.695 16.6101 161.695 21.0169V39.1525C161.695 39.8305 162.204 40.3389 162.712 40.3389H168.814V21.0169C168.814 12.0338 164.068 9.15249 156.441 9.15249C150.339 9.15249 144.237 10.8474 143.729 11.0169V40.3389H149.661ZM125.254 9.15249C117.288 9.15249 112.373 13.3898 112.373 22.7118V27.2881C112.373 37.4576 117.797 40.8474 123.559 40.8474C126.441 40.8474 129.492 38.8136 130.339 37.6271V39.4914C130.339 40.0001 130.848 40.5084 131.356 40.5084C131.356 40.5084 137.288 40.5084 137.458 40.5084V10.8474C137.628 10.8474 131.695 9.15249 125.254 9.15249ZM130.509 32.8814C129.153 34.0678 128.136 34.7457 125.254 34.7457C121.187 34.9155 119.492 32.3728 119.492 27.1186V22.8813C119.492 16.9491 121.695 15.2542 125.254 15.2542C128.136 15.2542 129.831 15.424 130.509 15.5931V32.8814ZM186.78 9.15249C178.814 9.15249 173.899 13.3898 173.899 22.7118V27.2881C173.899 37.4576 179.322 40.8474 185.254 40.8474C188.136 40.8474 191.187 38.8136 192.034 37.6271V39.4914C192.034 40.0001 192.543 40.5084 193.051 40.5084C193.051 40.5084 198.983 40.5084 199.153 40.5084V10.8474C199.153 10.8474 193.221 9.15249 186.78 9.15249ZM192.034 32.8814C190.678 34.0678 189.661 34.7457 186.78 34.7457C182.712 34.7457 181.017 32.3728 181.017 27.1186V22.8813C181.017 16.7796 183.221 15.2542 186.78 15.2542C189.661 15.2542 191.356 15.424 192.034 15.5931V32.8814ZM0.847656 40.3389C1.86461 40.3389 7.28836 40.3389 7.28836 40.3389C7.79699 40.3389 8.3053 39.8303 8.3053 39.322V22.3728H20.1697C22.2036 22.3728 23.5596 23.8983 23.5596 25.5932V39.322C23.5596 39.8306 24.0682 40.3389 24.5765 40.3389C24.5765 40.3389 30.6782 40.3389 31.0171 40.3389C31.0171 40.3389 31.0171 0.339004 31.0171 0H24.5765C24.0679 0 23.5596 0.508553 23.5596 1.01687V16.2711H11.3561C9.66119 16.2711 8.47475 14.9152 8.47475 13.3898V1.01687C8.30499 0.677991 7.96611 0 7.28836 0H0.847656C0.847656 0.338876 0.847656 40.3389 0.847656 40.3389ZM96.2714 9.15249C92.8815 9.15249 89.6612 10.5085 88.1358 11.5254C85.9324 9.83045 82.8815 9.15249 79.1527 9.15249C73.5595 9.15249 68.8137 10.8474 68.1358 11.1864V40.5084H74.2375C74.9154 40.5084 75.2545 39.9998 75.2545 39.322V15.7627C76.7798 15.4238 77.9663 15.254 78.9832 15.254C83.2205 15.254 84.2375 16.9489 84.2375 21.1862V39.3218C84.2375 39.8304 84.5764 40.5082 85.2545 40.5082H90.3392C91.0171 40.5082 91.3561 39.9996 91.3561 39.3218V16.6099C92.5426 15.7624 94.0679 15.254 95.5934 15.254C98.8138 15.254 100.17 16.7794 100.17 20.6778V39.3218C100.17 39.8304 100.509 40.5082 101.187 40.5082C101.187 40.5082 106.78 40.5082 107.288 40.5082V19.6608C107.458 11.8642 102.543 9.15249 96.2714 9.15249Z" fill="#4E8416"/>
</svg>
