<svg width="200" height="41" viewBox="0 0 200 41" fill="none" xmlns="http://www.w3.org/2000/svg">
<g clip-path="url(#clip0_543_9003)">
<path fill-rule="evenodd" clip-rule="evenodd" d="M26.8066 17.1201H33.3234V17.9939C31.5595 18.1009 31.3952 18.426 31.3952 19.8353V31.5223C31.3952 34.0447 32.8344 35.3467 34.8427 35.3467C37.153 35.3467 38.5635 33.8816 38.5635 31.4701V20.1068C38.5635 18.6966 38.1311 18.1009 36.4714 17.9939V17.1201H41.6765V17.9939C40.0219 18.1009 39.5859 18.6966 39.5859 20.1068V30.8714C39.5859 34.2321 38.1028 36.216 34.328 36.216C30.5283 36.216 28.7363 34.1519 28.7363 30.7602V19.8353C28.7363 18.426 28.5748 18.1009 26.8066 17.9939V17.1201ZM41.2827 35.7785V34.9064C42.5856 34.8498 43.0201 34.362 43.0201 33.5457V25.0579C43.0201 23.8851 42.695 23.695 41.2287 23.6371V22.7946L45.1909 22.6169V25.2462H45.2463C45.9782 23.7254 47.0383 22.4743 48.8869 22.4743C51.1408 22.4743 52.2 23.9433 52.2 26.3322V33.5505C52.2 34.4698 52.5788 34.8498 53.8808 34.9064V35.7785H49.8668V26.1162C49.8668 24.3236 49.187 23.7254 48.2611 23.7254C46.8231 23.7254 45.3542 25.6253 45.3542 28.2854V33.5505C45.3542 34.362 45.7875 34.8498 47.0913 34.9064V35.7785H41.2827ZM58.5607 18.5954C58.5607 19.6253 57.9894 20.331 57.1728 20.331C56.3589 20.331 55.7861 19.6253 55.7861 18.5954C55.7861 17.5612 56.3589 16.8579 57.1728 16.8579C57.9894 16.8579 58.5607 17.5612 58.5607 18.5954ZM54.4901 35.7785V34.9064C55.7921 34.8498 56.2239 34.362 56.2239 33.5457V24.9084C56.2239 23.7402 55.9 23.5492 54.4901 23.4949V22.6169L58.5607 22.4689V33.5457C58.5607 34.362 58.9967 34.8498 60.2978 34.9064V35.7785H54.4901ZM64.4911 17.7962V22.7946H67.7602V23.8161H64.4911V33.3905C64.4911 34.5898 64.8991 35.0782 65.6371 35.0782C66.5365 35.0782 67.2154 34.5051 67.2154 31.6223V30.862H68.0904V32.1403C68.0904 34.8881 67.0831 36.1012 65.0368 36.1012C63.2412 36.1012 62.1597 34.97 62.1597 32.7911V23.8161H60.4735V23.0089C62.4291 22.1965 63.4603 21.2714 63.6242 17.7962H64.4911ZM79.1985 29.1993C79.1985 25.2975 77.2978 22.4743 74.2893 22.4743C71.2224 22.4743 69.0517 25.2975 69.0517 29.2789C69.0517 32.6812 71.2782 36.1012 74.6416 36.1012C77.6783 36.1012 79.0114 33.7457 79.2567 31.3189L78.3856 31.1564C78.1126 33.0096 77.2722 35.0782 74.9125 35.0782C73.0949 35.0782 71.7124 33.0096 71.7124 29.1993H79.1985ZM71.7124 28.1772C71.7124 24.7008 72.7417 23.3431 74.2893 23.3431C75.7273 23.3431 76.5396 24.7008 76.5396 28.1772H71.7124ZM86.5822 17.9656C87.9912 18.0204 88.3441 18.2075 88.3441 19.3764V24.2552L88.2896 24.2811C87.7475 23.2252 86.8275 22.4689 85.552 22.4689C82.7051 22.4689 80.5599 25.3945 80.5599 29.3343C80.5599 33.5963 82.8126 36.1012 85.2519 36.1012C86.9053 36.1012 87.8023 35.1442 88.3962 33.8684H88.4538V35.7815L92.2523 35.6191V34.7582C91.169 34.7793 90.6791 34.3496 90.6791 32.8782V16.9435L86.5822 17.1177V17.9656ZM83.2224 29.3602C83.2224 25.1775 84.1951 23.4949 85.6888 23.4949C87.3404 23.4949 88.3441 25.5054 88.3441 29.3602C88.3441 34.032 86.9053 35.2243 85.4697 35.2243C84.1156 35.2243 83.2224 33.5411 83.2224 29.3602ZM92.9276 35.7785V34.9064C94.5583 34.7965 94.831 34.4698 94.831 33.0548V19.8302C94.831 18.426 94.5583 18.1 92.9276 17.9939V17.1201H99.4947V17.9939C97.8157 18.1 97.4899 18.426 97.4899 19.8302V25.4535H103.345V19.8302C103.345 18.426 103.015 18.1 101.337 17.9939V17.1201H107.901V17.9939C106.275 18.1 106.001 18.426 106.001 19.8302V33.0548C106.001 34.4698 106.275 34.7965 107.901 34.9064V35.7785H101.337V34.9064C103.015 34.7965 103.345 34.4698 103.345 33.0548V26.4774H97.4899V33.0548C97.4899 34.4698 97.8157 34.7965 99.4947 34.9064V35.7785H92.9276ZM118.452 29.1993C118.452 25.2975 116.553 22.4743 113.542 22.4743C110.476 22.4743 108.303 25.2975 108.303 29.2789C108.303 32.6812 110.528 36.1012 113.895 36.1012C116.93 36.1012 118.264 33.7457 118.505 31.3189L117.637 31.1564C117.365 33.0096 116.524 35.0782 114.165 35.0782C112.347 35.0782 110.964 33.0096 110.964 29.1993H118.452ZM110.964 28.1772C110.964 24.7008 111.993 23.3431 113.542 23.3431C114.98 23.3431 115.793 24.7008 115.793 28.1772H110.964ZM129.123 32.0297C129.067 33.9847 128.853 34.5816 128.337 34.5816C127.963 34.5816 127.771 34.2279 127.771 33.4444V25.8944C127.771 23.861 126.602 22.4743 123.565 22.4743C121.204 22.4743 119.465 23.9433 119.465 25.7877C119.465 26.8725 120.009 27.4191 120.77 27.4191C121.529 27.4191 122.128 26.8189 122.128 25.8432C122.128 25.054 121.856 24.4022 120.986 24.3236C121.557 23.642 122.343 23.3431 123.293 23.3431C124.731 23.3431 125.438 24.0228 125.438 25.5711V27.797C123.101 28.6705 118.823 29.9475 118.823 33.0406C118.823 34.8356 120.037 36.1012 122.121 36.1012C124.021 36.1012 124.838 35.2102 125.489 33.9907H125.544C125.707 35.4524 126.439 36.1012 127.742 36.1012C129.421 36.1012 129.995 34.8881 129.995 32.0366L129.123 32.0297ZM125.438 30.3805C125.438 33.4492 124.187 35.0782 122.802 35.0782C121.962 35.0782 121.31 34.3731 121.31 32.9325C121.31 30.6231 123.263 29.5932 125.438 28.8305V30.3805ZM129.637 35.7785V34.9064C130.94 34.8498 131.376 34.362 131.376 33.5505V19.4303C131.376 18.5059 130.913 18.0204 129.583 17.9656V17.1005L133.707 16.9435V33.5505C133.707 34.362 134.143 34.8498 135.446 34.9064V35.7785H129.637ZM139.376 17.7962V22.7946H142.649V23.8161H139.376V33.3905C139.376 34.5898 139.786 35.0782 140.52 35.0782C141.424 35.0782 142.103 34.5051 142.103 31.6223V30.862H142.975V32.1403C142.975 34.8881 141.967 36.1012 139.921 36.1012C138.128 36.1012 137.044 34.97 137.044 32.7911V23.8161H135.361V23.0089C137.314 22.1965 138.345 21.2714 138.511 17.7962H139.376ZM142.878 35.7785V34.9064C144.178 34.8498 144.618 34.362 144.618 33.5505V19.3764C144.618 18.2075 144.289 18.0204 142.822 17.9656V17.1177L146.948 16.9435V24.9202H147.004C147.547 23.7254 148.58 22.4743 150.401 22.4743C152.492 22.4743 153.795 23.9433 153.795 26.3322V33.5505C153.795 34.362 154.258 34.8498 155.478 34.9064V35.7785H151.461V26.2481C151.461 24.3528 150.78 23.7254 149.802 23.7254C148.444 23.7254 146.948 25.5165 146.948 28.1224V33.5505C146.948 34.362 147.384 34.8498 148.689 34.9064V35.7785H142.878ZM165.57 31.2758C165.324 33.8425 164.133 36.1383 161.138 36.1383C158.384 36.1383 155.838 33.6752 155.838 29.6579C155.838 26.2587 158.192 22.4373 161.472 22.4373C163.783 22.4373 165.24 23.8752 165.24 25.989C165.24 27.2892 164.837 27.9946 163.863 27.9946C163.105 27.9946 162.591 27.3414 162.591 26.3675C162.591 25.2016 162.998 24.7391 163.699 24.7391C163.888 24.7391 163.997 24.8214 164.109 24.8485L164.159 24.796C163.757 23.7902 162.89 23.2912 161.882 23.2912C159.857 23.2912 158.49 25.3381 158.49 29.1954C158.49 33.7906 159.911 35.0972 161.496 35.0972C163.699 35.0972 164.405 33.0783 164.701 31.1598L165.57 31.2758ZM176.834 32.0637C176.778 34.0401 176.567 34.6464 176.049 34.6464C175.674 34.6464 175.48 34.2884 175.48 33.4917V25.8724C175.48 23.8116 174.311 22.4373 171.243 22.4373C168.861 22.4373 167.131 23.8951 167.131 25.7582C167.131 26.8583 167.673 27.4055 168.428 27.4055C169.189 27.4055 169.78 26.8023 169.78 25.8136C169.78 25.0169 169.512 24.3582 168.645 24.2769C169.214 23.5938 170.004 23.2912 170.964 23.2912C172.422 23.2912 173.139 23.974 173.139 25.5406V27.7888C170.787 28.6458 166.481 29.937 166.481 33.0521C166.481 34.8534 167.703 36.1383 169.802 36.1383C171.716 36.1383 172.537 35.2349 173.192 34.0049H173.248C173.411 35.482 174.146 36.1383 175.454 36.1383C177.127 36.1383 177.686 34.9122 177.686 32.0366L176.834 32.0637ZM173.139 30.3712C173.139 33.4586 171.882 35.0972 170.488 35.0972C169.638 35.0972 168.981 34.3921 168.981 32.9406C168.981 30.6162 170.95 29.5778 173.139 28.8115V30.3712ZM178.025 35.7951V34.9447C179.167 34.8917 179.603 34.399 179.603 33.5764V26.1484C179.603 24.2916 179.274 23.6902 177.914 23.6371V22.757L181.67 22.5961V25.75H181.725C182.078 24.3293 183.046 22.4373 184.667 22.4373C185.671 22.4373 186.649 23.2617 186.649 24.796C186.649 25.9724 186.081 26.5718 185.373 26.5718C184.776 26.5718 184.147 26.1909 184.147 24.9603C184.147 24.3034 184.529 23.6197 185.315 23.6197C185.182 23.4012 184.908 23.2912 184.612 23.2912C182.777 23.3165 181.942 27.3139 181.942 29.6896V33.5764C181.942 34.3966 182.374 34.8917 184.204 34.9447V35.7951H178.025ZM196.8 29.2376C196.8 25.2758 194.908 22.4373 191.886 22.4373C188.809 22.4373 186.649 25.2758 186.649 29.319C186.649 32.7131 188.866 36.1383 192.241 36.1383C195.29 36.1383 196.609 33.7717 196.85 31.3571L196 31.1881C195.728 33.0385 194.883 35.0972 192.514 35.0972C190.685 35.0972 189.298 33.0385 189.298 29.2376H196.8ZM189.298 28.1983C189.298 24.6695 190.332 23.2912 191.886 23.2912C193.33 23.2912 194.149 24.6695 194.149 28.1983H189.298ZM197.396 20.3491H197.884C198.138 20.3491 198.221 20.5374 198.221 20.7064C198.221 20.9117 198.115 21.0843 197.884 21.0843H197.396V20.3491ZM197.396 21.3856H197.774C197.884 21.3856 198.097 21.3986 198.126 21.6493C198.15 21.9642 198.133 22.2679 198.221 22.4297H198.595C198.541 22.2812 198.506 21.9187 198.498 21.8159C198.488 21.3468 198.383 21.2543 198.09 21.2244V21.2139C198.391 21.1584 198.599 20.9466 198.599 20.6691C198.599 20.381 198.396 20.0896 197.947 20.0896H197.015V22.4297H197.396V21.3856ZM197.779 19.2245C196.655 19.2245 195.742 20.1267 195.742 21.2473C195.741 21.5152 195.793 21.7806 195.895 22.0283C195.997 22.276 196.147 22.5011 196.337 22.6906C196.526 22.8801 196.751 23.0303 196.999 23.1325C197.246 23.2348 197.512 23.2871 197.779 23.2864C198.893 23.2864 199.803 22.3836 199.803 21.2473C199.803 20.9817 199.75 20.7186 199.649 20.4731C199.547 20.2277 199.398 20.0047 199.21 19.8169C199.022 19.629 198.799 19.48 198.554 19.3784C198.308 19.2768 198.045 19.2245 197.779 19.2245ZM197.779 19.5277C198.006 19.5271 198.231 19.5713 198.44 19.6579C198.65 19.7445 198.84 19.8717 199.001 20.0322C199.161 20.1927 199.288 20.3833 199.374 20.5931C199.46 20.8028 199.504 21.0275 199.503 21.2543C199.503 22.2167 198.74 22.9842 197.779 22.9842C197.552 22.9852 197.326 22.9413 197.115 22.8548C196.905 22.7683 196.713 22.641 196.552 22.4802C196.391 22.3194 196.263 22.1283 196.176 21.9179C196.089 21.7075 196.045 21.482 196.045 21.2543C196.045 20.2997 196.819 19.5277 197.779 19.5277Z" fill="#1F3570"/>
<path fill-rule="evenodd" clip-rule="evenodd" d="M6.31942 39.1475C5.52211 38.9616 4.77964 38.277 4.49278 37.502C3.64876 37.3631 2.931 36.6604 2.62305 35.7329C2.63179 35.7329 2.63721 35.7329 2.64595 35.7353L5.56279 36.065C6.70331 35.6398 8.3383 34.3299 9.24228 31.0931C9.88139 28.8024 9.9733 25.3489 9.9733 21.4069V6.11313L8.15721 5.70965L11.6056 3.86162V22.932C11.6056 26.3412 11.4721 29.3586 10.7552 31.7828C10.3123 33.5359 8.44949 37.1136 5.22199 37.5427L7.49971 37.8145C9.56892 37.3043 11.2666 35.4286 12.2085 33.0116C13.2837 30.1996 13.4602 26.4424 13.4602 22.0096V4.27564L11.6056 3.86162L15.11 1.98556V22.7936C15.11 28.0096 14.5583 31.6309 13.4187 34.1805C12.6268 35.9013 10.4268 39.1864 7.0652 39.2165L9.67288 39.529C11.6797 39.1828 13.7887 37.5074 15.044 34.9124C16.3867 32.1411 17.0029 28.0304 17.0029 22.0096V2.40591L15.11 1.98556L18.6687 0.0766602V22.172C18.6687 30.4491 17.4079 36.5805 13.4392 39.3328C12.1784 40.1775 10.8541 40.8838 9.23354 40.816C8.0415 40.7647 6.94859 40.2139 6.31942 39.1475Z" fill="#7E868A"/>
<path fill-rule="evenodd" clip-rule="evenodd" d="M3.17266 35.7785H3.16393H3.21334C3.22931 35.7785 3.23986 35.7785 3.25734 35.7746C3.27421 35.7746 3.28928 35.7746 3.30615 35.774C3.32272 35.774 3.33779 35.774 3.35376 35.7704C3.37033 35.7704 3.3863 35.7692 3.40227 35.7692C3.42246 35.7647 3.43843 35.7647 3.45862 35.7635C3.47278 35.7622 3.49056 35.7586 3.50292 35.7562C3.52672 35.7526 3.54691 35.7517 3.56921 35.7469C3.58428 35.7463 3.59753 35.7433 3.6132 35.7421C3.63972 35.7396 3.66172 35.7327 3.68462 35.7291C3.69788 35.7279 3.71113 35.7246 3.7253 35.7222C3.75362 35.7149 3.77743 35.7116 3.80394 35.7068C3.82082 35.7032 3.83317 35.6975 3.85065 35.6938C3.87536 35.6881 3.90368 35.6827 3.93201 35.6752C3.94596 35.6696 3.96038 35.6652 3.9751 35.6622C4.00613 35.6538 4.03265 35.6468 4.06338 35.6363C4.07483 35.6303 4.09081 35.6257 4.10858 35.6197C4.13661 35.6116 4.16855 35.601 4.19687 35.5902C4.21103 35.5845 4.2249 35.5766 4.24087 35.5715C4.26919 35.5634 4.30264 35.5492 4.33277 35.535C4.34967 35.5305 4.36574 35.5232 4.38038 35.5137C4.41051 35.5019 4.44396 35.4856 4.47741 35.4715C4.48976 35.4654 4.50664 35.4561 4.52261 35.4498C4.55334 35.4326 4.58619 35.4148 4.62054 35.3973C4.63691 35.3914 4.65189 35.3822 4.66453 35.3702C4.69828 35.3561 4.73444 35.3338 4.76608 35.316C4.78114 35.3054 4.79531 35.2973 4.81128 35.2877C4.84472 35.2654 4.88269 35.2455 4.91614 35.2232C4.9294 35.2123 4.94537 35.1997 4.96134 35.1888C4.99716 35.1656 5.03166 35.1405 5.06469 35.1135C5.08209 35.1031 5.09862 35.0913 5.11411 35.0782C5.14665 35.0511 5.18191 35.0264 5.21807 34.9978C5.23404 34.9842 5.25001 34.9701 5.26327 34.9559C5.30033 34.9276 5.33558 34.8992 5.36752 34.8688C5.385 34.8522 5.40097 34.8357 5.41604 34.8206C5.45401 34.7893 5.48655 34.7582 5.5209 34.7251C5.5399 34.7076 5.55763 34.6888 5.57393 34.6687C5.60919 34.6341 5.63932 34.6021 5.67277 34.5663C5.69476 34.5452 5.71525 34.5211 5.73273 34.4991C5.76467 34.465 5.79631 34.4298 5.82554 34.3909C5.84573 34.371 5.86351 34.3472 5.8846 34.3204C5.91654 34.2815 5.94818 34.246 5.97922 34.2032C5.9976 34.1785 6.01718 34.1532 6.03466 34.1285C6.06841 34.083 6.09824 34.0426 6.13018 34.0013C6.14947 33.9736 6.17056 33.9425 6.18834 33.9142C6.21847 33.8684 6.24499 33.8259 6.27663 33.7801C6.29772 33.7494 6.31911 33.7129 6.34021 33.681C6.36853 33.634 6.39655 33.5918 6.42488 33.5424C6.44627 33.5068 6.46556 33.4728 6.48334 33.4375C6.51226 33.3869 6.54149 33.3363 6.57162 33.2881C6.59181 33.2468 6.60869 33.2079 6.62797 33.1726C6.6563 33.1196 6.68522 33.0678 6.71084 33.0114C6.73404 32.969 6.75332 32.9219 6.77532 32.8783C6.79913 32.8261 6.82655 32.7737 6.85035 32.7195C6.87265 32.6688 6.89465 32.6176 6.91664 32.5646C6.93864 32.5124 6.96244 32.4606 6.98625 32.4052C7.00674 32.3533 7.02512 32.3033 7.04832 32.247C7.06942 32.1873 7.09412 32.1322 7.11702 32.071C7.1348 32.0204 7.1559 31.9637 7.17367 31.9086C7.19657 31.8444 7.224 31.7826 7.24418 31.7172C7.2698 31.6425 7.2927 31.5624 7.31831 31.4858C7.33247 31.4376 7.35025 31.3918 7.36592 31.3424C7.40479 31.2128 7.44366 31.0799 7.48253 30.9443C8.02191 28.9999 8.15781 25.0628 8.15781 22.4442V5.70947L0 10.0793V27.3245C0 33.9031 1.1821 35.4772 2.64655 35.7351C2.63781 35.7327 2.63239 35.7327 2.62365 35.7327L3.17266 35.7785Z" fill="#1F3570"/>
</g>
<defs>
<clipPath id="clip0_543_9003">
<rect width="200" height="40.96" fill="white"/>
</clipPath>
</defs>
</svg>
