<svg width="200" height="24" viewBox="0 0 200 24" fill="none" xmlns="http://www.w3.org/2000/svg">
<path d="M14.9242 7.59034C14.6769 7.38429 14.3472 7.13703 14.0175 7.05461L13.4818 17.522L16.1193 10.269C16.3665 9.15633 15.7484 8.24971 14.9242 7.59034Z" fill="#006BA6"/>
<path d="M10.5971 6.93097L12.1219 17.3572L13.6054 6.93097C12.74 6.60129 11.5861 6.56008 10.5971 6.93097Z" fill="#006BA6"/>
<path d="M9.31951 7.59034C8.4953 8.29092 7.87715 9.19755 8.12441 10.269L10.7619 17.522L10.2261 7.05461C9.89645 7.13703 9.56677 7.34308 9.31951 7.59034Z" fill="#006BA6"/>
<path d="M4.04462 8.57939C5.77546 11.629 7.58872 14.8846 9.31956 17.8105C8.7014 15.2555 8.08325 11.0108 7.17662 9.8157C6.14636 8.37334 4.04462 8.57939 4.04462 8.57939Z" fill="#006BA6"/>
<path d="M0.953845 10.1042L8.12446 18.3463L3.67373 8.6206C2.51984 8.66181 1.53079 9.23876 0.953845 10.1042Z" fill="#006BA6"/>
<path d="M15.9132 12.3295L14.7181 17.9754C16.2429 15.3379 17.7677 12.7416 19.2513 10.1042C17.8501 10.1866 16.4077 10.7223 15.9132 12.3295Z" fill="#006BA6"/>
<path d="M19.6633 10.1042L15.872 18.4699L22.5069 11.2581C21.7651 10.4751 20.776 10.1042 19.6633 10.1042Z" fill="#006BA6"/>
<path d="M0.00598945 13.8131C2.35498 15.5852 4.66276 17.4396 7.01176 19.2117L0.706571 10.3514C0.129626 11.3817 -0.0352209 12.5356 0.00598945 13.8131Z" fill="#006BA6"/>
<path d="M23.3311 12.2883C23.2074 11.9999 23.0426 11.7526 22.7953 11.5465L17.0671 19.3353C19.3337 17.6457 21.5178 15.9148 23.702 14.2252C23.7432 13.5246 23.6608 12.8653 23.3311 12.2883Z" fill="#006BA6"/>
<path d="M0.00598637 17.4396L6.10513 20.2419C4.08582 18.2226 2.0253 16.2857 0.00598637 14.3076V17.4396Z" fill="#006BA6"/>
<path d="M23.7432 17.6457V14.8022L17.9737 20.3656C19.9518 19.4177 21.7651 18.5523 23.7432 17.6457Z" fill="#006BA6"/>
<path d="M0.00598637 20.2007C1.86045 20.6128 3.83855 21.1073 5.48697 21.4782L0.00598637 17.8517V20.2007Z" fill="#006BA6"/>
<path d="M23.7432 20.3656V18.1814C22.0124 19.2529 20.2403 20.4068 18.6331 21.5195L23.7432 20.3656Z" fill="#006BA6"/>
<path d="M0.00598637 22.9206H5.36334L0.00598637 20.654V22.9206Z" fill="#006BA6"/>
<path d="M23.7432 22.9206V20.8601C21.9711 21.6019 20.4463 22.22 18.7979 22.9206H23.7432Z" fill="#006BA6"/>
<path d="M21.8887 7.30187C21.9299 4.08746 17.2319 4.08746 17.3144 7.26066C17.2732 10.2278 22.0124 10.3926 21.8887 7.30187Z" fill="#006BA6"/>
<path d="M6.55846 5.65345C6.7233 2.43904 1.69563 2.56267 1.90168 5.65345C1.73684 8.86786 6.84693 8.90907 6.55846 5.65345Z" fill="#006BA6"/>
<path d="M12.1218 6.27161C13.9763 6.31282 14.7181 4.95288 14.7593 3.67535C14.8417 1.69725 13.6054 0.873047 12.1218 0.873047C10.6383 0.873047 9.44315 1.73847 9.52557 3.67535C9.56678 4.78803 10.0201 6.2304 12.1218 6.27161Z" fill="#006BA6"/>
<path d="M51.6014 10.269H53.7856V22.797H51.6014V10.269Z" fill="#006BA6"/>
<path d="M43.8951 10.269L40.1861 20.9013L36.5596 16.3682L41.3812 10.269H38.8674L34.4167 16.2033V10.269H32.2325V22.797H34.4167V16.6154L39.0323 22.797H41.6697L42.8236 19.1705H47.4392L48.6343 22.797H50.9008L46.5325 10.269H43.8951ZM43.3593 17.4396L45.049 12.2471H45.0902L46.821 17.4396H43.3593Z" fill="#006BA6"/>
<path d="M124.585 19.3353L122.401 10.269H118.568V22.797H120.711V12.1235L123.472 22.797H125.656C125.698 22.797 128.418 12.1235 128.418 12.1235V22.797H130.561V10.269H126.81L124.585 19.3353Z" fill="#006BA6"/>
<path d="M136.041 10.269L131.673 22.8382H133.816L134.97 19.2117H139.627L140.863 22.8382H143.13L138.761 10.269H136.041ZM135.547 17.4396L137.237 12.2471H137.278L139.05 17.4396H135.547Z" fill="#006BA6"/>
<path d="M151.99 19.9535L146.962 10.269H144.077V22.797H146.138V13.3598L151.083 22.797H154.05V10.269H151.949V19.9535" fill="#006BA6"/>
<path d="M193.324 20.9837H188.131V17.4396H191.964V15.6264H188.131V12.0823C188.626 12.0823 192.871 12.0823 192.871 12.0823V10.269C191.593 10.269 185.947 10.269 185.947 10.269V22.8382H193.283L193.324 20.9837Z" fill="#006BA6"/>
<path d="M173.419 10.2278H173.007V20.0359L167.98 10.269H165.095V20.9837H158.46V17.4396H162.293V15.6264H158.46V12.0823C158.954 12.0823 163.199 12.0823 163.199 12.0823V10.269C161.922 10.269 156.317 10.269 156.317 10.269V22.8382H167.155V13.2362L172.101 22.797H175.068V12.1647H178.9V22.8382H181.084V12.1647H184.835V10.269H173.419" fill="#006BA6"/>
<path d="M115.436 16.4918C116.137 15.9148 116.631 14.967 116.631 13.8131C116.631 12.6592 116.137 11.7526 115.436 11.1756C114.653 10.5163 113.582 10.269 111.769 10.269H108.101V21.0249H101.425V17.4808H105.257V15.6676H101.425V12.1235C101.919 12.1235 106.164 12.1235 106.164 12.1235V10.3102C104.886 10.3102 99.2406 10.3102 99.2406 10.3102V22.8794H110.285V17.4808H111.356C112.346 19.0468 114.488 22.8382 114.488 22.8382H117.085L113.705 17.316C114.447 17.1512 114.983 16.8627 115.436 16.4918ZM110.326 15.6264V12.0823H112.181C113.829 12.0823 114.488 12.7416 114.488 13.8131C114.488 15.0082 113.829 15.5852 112.181 15.5852H110.326V15.6264Z" fill="#006BA6"/>
<path d="M80.9844 16.4918C81.685 15.9148 82.1795 14.967 82.1795 13.8131C82.1795 12.6592 81.685 11.7526 80.9844 11.1756C80.2426 10.5163 79.13 10.269 77.3167 10.269H73.649V21.0249H66.9729V17.4808H70.8055V15.6676H66.9729V12.1235C67.4674 12.1235 71.7121 12.1235 71.7121 12.1235V10.3102C70.4346 10.3102 64.7887 10.3102 64.7887 10.3102V22.8794H75.8331V17.4808H76.9046C77.8936 19.0468 80.0366 22.8382 80.0366 22.8382H82.6328L79.2536 17.316C80.0366 17.1512 80.5723 16.8627 80.9844 16.4918ZM75.8743 15.6264V12.0823H77.7288C79.3772 12.0823 80.0366 12.7416 80.0366 13.8131C80.0366 15.0082 79.3772 15.5852 77.7288 15.5852H75.8743V15.6264Z" fill="#006BA6"/>
<path d="M96.768 11.2169C95.985 10.5575 94.9135 10.269 93.1003 10.269H89.4325V22.8382H91.6167V17.6457H93.1003C94.9135 17.6457 95.985 17.316 96.7268 16.6566C97.4274 16.0797 97.9219 15.0906 97.9219 13.9367C97.9219 12.7829 97.4274 11.7938 96.768 11.2169ZM93.4712 15.7912H91.6167V12.0823H93.4712C95.1196 12.0823 95.7789 12.8241 95.7789 13.8955C95.7789 15.0494 95.0372 15.7912 93.4712 15.7912Z" fill="#006BA6"/>
<path d="M60.1732 15.5027C58.4423 14.8846 57.6593 14.3901 57.6593 13.401C57.6593 12.6592 58.4423 11.7938 59.9259 11.7938C61.0386 11.7938 62.1101 12.1647 62.6458 12.4532V10.6399C62.0688 10.3514 61.0386 10.063 59.9671 10.063C57.2472 10.063 55.3928 11.5878 55.3928 13.6071C55.3928 15.4203 56.7939 16.533 58.8956 17.2336C60.5441 17.8105 61.2446 18.3875 61.2446 19.3765C61.2446 20.448 60.338 21.1898 58.8132 21.1898C57.6181 21.1898 56.1346 20.7777 55.3516 20.2831V22.22C56.0933 22.6321 57.4121 22.9618 58.6484 22.9618C61.904 22.9618 63.47 21.231 63.47 19.2117C63.5112 17.3572 62.3573 16.2857 60.1732 15.5027Z" fill="#006BA6"/>
<path d="M195.302 20.5716C195.302 19.3765 196.209 18.4699 197.404 18.4699C198.558 18.4699 199.464 19.3765 199.464 20.5716C199.464 21.8079 198.558 22.6733 197.404 22.6733C196.25 22.7146 195.302 21.8079 195.302 20.5716ZM197.404 23.1267C198.805 23.1267 200 22.0552 200 20.5716C200 19.1293 198.805 18.0166 197.404 18.0166C196.003 18.0166 194.807 19.088 194.807 20.5716C194.807 22.0552 196.003 23.1267 197.404 23.1267ZM196.868 20.7777H197.363L198.146 22.0552H198.64L197.816 20.7777C198.269 20.7365 198.599 20.4892 198.599 19.9535C198.599 19.3765 198.269 19.1293 197.569 19.1293H196.456V22.0552H196.909V20.7777H196.868ZM196.868 20.4068V19.5001H197.486C197.816 19.5001 198.146 19.5826 198.146 19.9123C198.146 20.3656 197.816 20.4068 197.445 20.4068H196.868Z" fill="#006BA6"/>
</svg>
